<?xml version="1.0" encoding="UTF-8"?>
<!DOCTYPE svg PUBLIC "-//W3C//DTD SVG 1.1//EN" "http://www.w3.org/Graphics/SVG/1.1/DTD/svg11.dtd">
<!-- Creator: CorelDRAW -->
<svg xmlns="http://www.w3.org/2000/svg" xml:space="preserve" width="6.82666in" height="6.82666in" style="shape-rendering:geometricPrecision; text-rendering:geometricPrecision; image-rendering:optimizeQuality; fill-rule:evenodd; clip-rule:evenodd"
viewBox="0 0 6.82666 6.82666"
 xmlns:xlink="http://www.w3.org/1999/xlink">
 <defs>
  <style type="text/css">
   <![CDATA[
    .fil19 {fill:none}
    .fil1 {fill:#444444}
    .fil15 {fill:#6C6C6C}
    .fil12 {fill:#797979}
    .fil13 {fill:#8F8F90}
    .fil16 {fill:#A1A1A1}
    .fil14 {fill:#A5A5A6}
    .fil0 {fill:#AEAEAF}
    .fil2 {fill:#202020;fill-rule:nonzero}
    .fil8 {fill:#3A3A3A;fill-rule:nonzero}
    .fil6 {fill:#444444;fill-rule:nonzero}
    .fil7 {fill:#545454;fill-rule:nonzero}
    .fil11 {fill:#767676;fill-rule:nonzero}
    .fil9 {fill:#8E8E8F;fill-rule:nonzero}
    .fil4 {fill:#959595;fill-rule:nonzero}
    .fil18 {fill:#BEBEBE;fill-rule:nonzero}
    .fil17 {fill:#C4C4C4;fill-rule:nonzero}
    .fil3 {fill:#CACACA;fill-rule:nonzero}
    .fil10 {fill:#DADADA;fill-rule:nonzero}
    .fil5 {fill:gainsboro;fill-rule:nonzero}
   ]]>
  </style>
 </defs>
 <g id="Layer_x0020_1">
  <metadata id="CorelCorpID_0Corel-Layer"/>
  <g id="_275526632">
   <polygon id="_275529056" class="fil0" points="5.16311,2.55412 5.1955,2.50217 5.20543,2.56227 5.13,2.95371 5.08769,2.94556 "/>
   <polygon id="_275529200" class="fil1" points="5.17661,2.55672 5.19193,2.55967 5.1165,2.95111 5.10118,2.94816 "/>
   <polygon id="_275529608" class="fil0" points="4.96896,2.56306 4.97993,2.50845 5.0117,2.55759 5.0623,2.95301 5.01957,2.95848 "/>
   <polygon id="_275528504" class="fil1" points="4.98259,2.56132 4.99807,2.55934 5.04867,2.95475 5.0332,2.95673 "/>
   <g>
    <path id="_275528432" class="fil2" d="M4.00923 2.6405c0,0.302185 -0.26439,0.318382 -0.590492,0.318382 -0.326114,0 -0.590504,-0.0161969 -0.590504,-0.318382 0.0701535,-0.0909646 0,-0.549248 0,-0.757209 0,-0.214957 0.133768,-0.400957 0.328327,-0.490437 0.314083,-0.144398 0.420756,-0.0210709 0.480713,0.0236102 0.193185,0.00130315 0.371957,0.236146 0.371957,0.466827 0,0.207961 -0.0617244,0.62985 0,0.757209z"/>
    <path id="_275528288" class="fil3" d="M2.94558 2.91489c0.0488858,-0.00790945 0.0279016,-0.103575 0.0193661,-0.148878 -0.00853543,-0.0453031 -0.0550906,-0.0756181 -0.10398,-0.0677087 -0.0641535,0.0104882 -0.0741654,-0.00972441 -0.124543,0.0410866 -0.117228,0.11824 -0.0939134,0.695602 -0.082689,0.862512 0.00898819,0.133618 0.0140669,0.224299 0.013189,0.323323 -0.000874016,0.0986969 -0.00779921,0.212488 -0.022811,0.394283 -0.00368504,0.0458425 0.0334331,0.0857795 0.0829016,0.0891929 0.0494724,0.00341339 0.0925669,-0.0309803 0.096252,-0.0768228 0.0149409,-0.180878 0.0218583,-0.297409 0.022811,-0.405354 0.000952756,-0.107626 0.00966535,-0.203378 0.000622047,-0.337815 -0.00566142,-0.0842205 -0.0036063,-0.593886 0.0445906,-0.642496 0.014437,-0.014563 0.0229055,-0.0261929 0.0542913,-0.0313228z"/>
    <path id="_275528864" class="fil3" d="M3.88108 2.91489c-0.0488858,-0.00790945 -0.0279016,-0.103575 -0.0193661,-0.148878 0.00853543,-0.0453031 0.0550906,-0.0756181 0.10398,-0.0677087 0.0641535,0.0104882 0.0741654,-0.00972441 0.124543,0.0410866 0.117228,0.11824 0.0939134,0.695602 0.082689,0.862512 -0.00899213,0.133618 -0.0140669,0.224299 -0.013189,0.323323 0.000874016,0.0986969 0.00779921,0.212488 0.022811,0.394283 0.00368504,0.0458425 -0.0334331,0.0857795 -0.0829016,0.0891929 -0.0494724,0.00341339 -0.0925709,-0.0309803 -0.096252,-0.0768228 -0.0149409,-0.180878 -0.0218583,-0.297409 -0.022811,-0.405354 -0.000952756,-0.107626 -0.00966535,-0.203378 -0.000622047,-0.337815 0.00566142,-0.0842205 0.0036063,-0.593886 -0.0445906,-0.642496 -0.014437,-0.014563 -0.0229055,-0.0261929 -0.0542913,-0.0313228z"/>
    <path id="_275528360" class="fil3" d="M3.10324 2.00831c0,0.084185 -0.0427283,0.1525 -0.0955039,0.1525 -0.0527244,0 -0.0955433,-0.068315 -0.0955433,-0.1525 0,-0.0842323 0.0428189,-0.152504 0.0955433,-0.152504 0.0527756,0 0.0955039,0.0682717 0.0955039,0.152504z"/>
    <path id="_275528744" class="fil3" d="M3.93755 2.00831c0,0.084185 -0.0427126,0.1525 -0.0954488,0.1525 -0.0527638,0 -0.0955315,-0.068315 -0.0955315,-0.1525 0,-0.0842323 0.0427677,-0.152504 0.0955315,-0.152504 0.0527362,0 0.0954488,0.0682717 0.0954488,0.152504z"/>
    <path id="_275528552" class="fil4" d="M3.89683 2.88772c0.0109882,-0.0526496 0.0354646,-0.0893661 0.0629764,-0.11487 0.0533228,-0.0494528 0.118094,-0.0568386 0.118094,-0.0568386 -0.162531,-0.206681 -0.440524,-0.147 -0.440524,-0.147l-0.218783 0.170677 -0.218776 -0.170677c0,0 -0.278047,-0.0596811 -0.440575,0.147 0,0 0.148772,0.0169764 0.181028,0.171709 0.000862205,0.00372441 0.00152756,0.00753937 0.00220866,0.0114055 0.0270669,0.165354 -0.0529055,0.295984 0.0253819,0.443618 0,0 0.0745197,0.182429 0.0335906,0.344882l0.417142 0 0.417098 0c-0.0390945,-0.174311 0.033685,-0.344882 0.033685,-0.344882 0.078189,-0.147634 -0.00182283,-0.278264 0.0253937,-0.443618 0.000570866,-0.00386614 0.00133858,-0.0076811 0.00205906,-0.0114055z"/>
    <path id="_275528720" class="fil3" d="M3.54498 2.53357c0,0 -0.0290827,-0.179772 0.00260236,-0.275146 0.0316654,-0.0952795 -0.128996,0.0772638 -0.128996,0.0772638 0,0 -0.160693,-0.172543 -0.129028,-0.0772638 0.0316142,0.095374 0.00258661,0.275146 0.00258661,0.275146l-0.0923346 0.0354409c0.0448543,0.254319 0.218776,0.195807 0.218776,0.195807 0,0 0.17389,0.0585118 0.218783,-0.195807l-0.0923898 -0.0354409z"/>
    <path id="_275528624" class="fil5" d="M3.83928 1.9458c0,0.358673 -0.293177,0.510299 -0.419339,0.510299 -0.126157,0 -0.419394,-0.162724 -0.419394,-0.510299 0,-0.281846 0.0594567,-0.510287 0.419394,-0.510287 0.359882,0 0.419339,0.228441 0.419339,0.510287z"/>
    <path id="_275528960" class="fil2" d="M3.67075 1.74502c0,0 -0.30635,0.25874 -0.670394,0.109768 0,0 -0.0751693,-0.422185 0.417339,-0.422185 0.492547,0 0.423291,0.423602 0.423291,0.423602 0,0 -0.116039,-0.00764173 -0.170236,-0.111185z"/>
   </g>
   <g>
    <path id="_275527544" class="fil6" d="M1.71381 5.45578c0,-0.0589094 -0.0477598,-0.106669 -0.106669,-0.106669 -0.0589094,0 -0.106669,0.0477598 -0.106669,0.106669l0 0.176209c0,0.0589094 0.0477598,0.106669 0.106669,0.106669 0.0589094,0 0.106669,-0.0477598 0.106669,-0.106669l0 -0.176209z"/>
    <path id="_275528072" class="fil6" d="M5.32618 5.45578c0,-0.0589094 -0.0477598,-0.106669 -0.106669,-0.106669 -0.0589094,0 -0.106669,0.0477598 -0.106669,0.106669l0 0.176209c0,0.0589094 0.0477598,0.106669 0.106669,0.106669 0.0589094,0 0.106669,-0.0477598 0.106669,-0.106669l0 -0.176209z"/>
    <path id="_275527616" class="fil7" d="M1.29877 3.60223l4.22912 0c0.0589094,0 0.106669,0.0477598 0.106669,0.106669l0 1.652c0,0.0589094 -0.0477598,0.106669 -0.106669,0.106669 -1.40972,0 -2.81941,0 -4.22912,0 -0.0589094,0 -0.106669,-0.0477598 -0.106669,-0.106669l0 -1.652c0,-0.0589094 0.0477598,-0.106669 0.106669,-0.106669z"/>
    <path id="_275528024" class="fil8" d="M0.946346 3.58697c-0.0589094,0 -0.106669,0.0477598 -0.106669,0.106669 0,0.0589094 0.0477598,0.106669 0.106669,0.106669l4.93397 0c0.0589094,0 0.106669,-0.0477598 0.106669,-0.106669 0,-0.0589094 -0.0477598,-0.106669 -0.106669,-0.106669l-4.93397 0z"/>
    <path id="_275527736" class="fil9" d="M2.24852 3.96668c-0.00948819,-0.00325197 -0.0196575,-0.00503937 -0.0302441,-0.00509449 -0.078248,-0.000401575 -0.0980315,0.059752 -0.094874,0.094374l-0.00759449 1.45855c-0.00461417,0.0487244 0.0289685,0.0935827 0.0780079,0.102157l3.93701e-005 -6.29921e-005c0.377138,0.0659567 0.769028,0.0986654 1.17546,0.0985315 0.404941,-0.000133858 0.821768,-0.0328307 1.25031,-0.0976575 0.0470551,-0.0053189 0.083748,-0.045126 0.0839961,-0.0936457l0.00722441 -1.45843c0.000956693,-0.00992126 0.000350394,-0.0201575 -0.00201575,-0.0304055 -0.0117795,-0.0509843 -0.0626654,-0.0827638 -0.11365,-0.0709843l4.72441e-005 0.000200787c-0.416902,0.096315 -1.93671,0.111 -2.34671,0.00246457z"/>
    <path id="_275527880" class="fil10" d="M3.37266 4.35487c0.157413,0 0.300024,0.0631339 0.403343,0.165193 0.103563,0.102315 0.167626,0.243559 0.167626,0.399465 0,0.155909 -0.064063,0.29715 -0.167626,0.399465 -0.103315,0.102063 -0.245929,0.165193 -0.403343,0.165193 -0.157417,0 -0.300031,-0.0631299 -0.403346,-0.165193 -0.103563,-0.102315 -0.167626,-0.243555 -0.167626,-0.399465 0,-0.155909 0.064063,-0.29715 0.16763,-0.399465 0.103311,-0.102063 0.245929,-0.165193 0.403343,-0.165193z"/>
    <polygon id="_275527472" class="fil11" points="3.09496,4.81996 3.27308,4.81996 3.27308,4.64519 3.47224,4.64519 3.47224,4.81996 3.65036,4.81996 3.65036,5.01911 3.47224,5.01911 3.47224,5.19387 3.27308,5.19387 3.27308,5.01911 3.09496,5.01911 "/>
   </g>
   <path id="_275526824" class="fil12" d="M3.94731 1.46731l-0.0232598 0.0945197 5.90551e-005 1.5748e-005c-0.00216929,0.0161457 -0.0123858,0.0273661 -0.0238071,0.0271535l-0.974657 0c-0.0122874,0 -0.0224094,-0.0128976 -0.0237559,-0.0294882l-0.0198543 -0.0922008 1.06528 0z"/>
   <path id="_275527040" class="fil13" d="M3.93675 1.52331l-0.0126929 0.0679606 5.90551e-005 1.1811e-005c-0.00216929,0.0116063 -0.0123858,0.0196772 -0.0238071,0.0195197l-0.974657 0c-0.0122874,0 -0.0224094,-0.00927165 -0.0237559,-0.0212008l-0.0123819 -0.0662913 1.04724 0z"/>
   <path id="_275526968" class="fil14" d="M3.98623 1.2584l-0.0405669 0.217201c-0.000838583,-7.08661e-005 -0.00168504,-0.000110236 -0.00254331,-0.000110236l-1.05998 0c-0.000858268,0 -0.00170472,3.93701e-005 -0.00254331,0.000110236l-0.0408858 -0.218921c-0.00106299,-0.00824409 0.00111024,-0.0200079 0.0128031,-0.025811 0.0733189,-0.0449685 0.160504,-0.0811575 0.257087,-0.105807 0.0935236,-0.0238701 0.196059,-0.0370512 0.303528,-0.0370512 0.107469,0 0.210004,0.0131811 0.303528,0.0370512 0.0974055,0.0248583 0.185256,0.0614528 0.258961,0.106961 0.00811024,0.0064685 0.0125157,0.0191732 0.0106102,0.026378z"/>
   <polygon id="_275527088" class="fil15" points="3.43704,1.22441 3.43704,1.3005 3.51313,1.3005 3.51313,1.34832 3.43704,1.34832 3.43704,1.42441 3.38922,1.42441 3.38922,1.34832 3.31313,1.34832 3.31313,1.3005 3.38922,1.3005 3.38922,1.22441 "/>
   <rect id="_275526224" class="fil1" x="1.2332" y="3.48812" width="1.05556" height="0.0694449" rx="0.0347244" ry="0.0347244"/>
   <polygon id="_275526392" class="fil16" points="1.45545,3.43083 1.7617,3.40112 2.0665,3.43083 2.0665,3.456 2.04104,3.456 2.04104,3.48508 2.0665,3.48508 2.0665,3.50721 1.45545,3.50721 1.45545,3.48508 1.48091,3.48508 1.48091,3.456 1.45545,3.456 "/>
   <g>
    <path id="_275526464" class="fil17" d="M4.91278 3.57913l0.245161 0c0.020685,0 0.0381575,-0.0107441 0.0513858,-0.0280827 0.0136024,-0.0178307 0.0224803,-0.0427362 0.0253858,-0.0697835l0.0480669 -0.447366c0.000437008,-0.00405906 0.000649606,-0.00784646 0.000649606,-0.011374 0,-0.0239921 -0.00808268,-0.0455945 -0.0207283,-0.0619331 -0.0120551,-0.0155709 -0.0284488,-0.0263465 -0.0458346,-0.0295591 -0.00374803,-0.000688976 -0.00738189,-0.00105118 -0.0108583,-0.00105118l-0.341295 0c-0.00347638,0 -0.00711024,0.000362205 -0.0108583,0.00105118 -0.0173858,0.0032126 -0.0337795,0.0139882 -0.0458346,0.0295591 -0.0126457,0.0163346 -0.0207283,0.0379409 -0.0207283,0.0619331 0,0.00352756 0.000212598,0.0073189 0.000649606,0.011374l0.0480709 0.447366c0.00290551,0.0270472 0.0117795,0.0519567 0.0253819,0.0697835 0.0132283,0.0173386 0.0307008,0.0280827 0.0513858,0.0280827z"/>
    <path id="_275526344" class="fil18" d="M4.91278 3.57913l0.122583 0 0 -0.64915 -0.17065 0c-0.00347638,0 -0.00711024,0.000362205 -0.0108583,0.00105118 -0.0173858,0.0032126 -0.0337795,0.0139882 -0.0458346,0.0295591 -0.0126457,0.0163346 -0.0207283,0.0379409 -0.0207283,0.0619331 0,0.00352756 0.000212598,0.0073189 0.000649606,0.011374l0.0480709 0.447366c0.00290551,0.0270472 0.0117795,0.0519567 0.0253819,0.0697835 0.0132283,0.0173386 0.0307008,0.0280827 0.0513858,0.0280827z"/>
   </g>
  </g>
  <rect class="fil19" width="6.82666" height="6.82666"/>
 </g>
</svg>
