<svg xmlns="http://www.w3.org/2000/svg" xmlns:xlink="http://www.w3.org/1999/xlink" width="362" zoomAndPan="magnify" viewBox="0 0 271.5 85.499998" height="114" preserveAspectRatio="xMidYMid meet" version="1.0"><defs><g/><clipPath id="58764338e5"><path d="M 2 1 L 71.375 1 L 71.375 79.785156 L 2 79.785156 Z M 2 1 " clip-rule="nonzero"/></clipPath></defs><g clip-path="url(#58764338e5)"><path fill="#ffffff" d="M 65.875 6.261719 C 62.773438 3.304688 58.609375 1.652344 54.320312 1.667969 C 49.894531 1.683594 45.730469 3.417969 42.597656 6.550781 L 36.625 12.523438 L 30.796875 6.699219 C 24.308594 0.210938 13.746094 0.0078125 7.191406 6.433594 C 0.578125 12.921875 0.535156 23.585938 7.074219 30.121094 L 38.710938 61.757812 C 42.320312 65.367188 42.488281 71.246094 38.949219 74.925781 C 35.328125 78.691406 29.3125 78.734375 25.636719 75.058594 L 17.800781 67.21875 C 17.46875 66.890625 17.4375 66.367188 17.71875 65.992188 C 18.878906 64.472656 19.515625 62.539062 19.375 60.453125 C 19.089844 56.339844 15.726562 53.03125 11.609375 52.816406 C 6.839844 52.566406 2.882812 56.410156 2.949219 61.140625 C 3.003906 65.523438 6.578125 69.136719 10.957031 69.25 C 12.371094 69.285156 13.707031 68.960938 14.878906 68.363281 C 15.234375 68.183594 15.667969 68.261719 15.953125 68.542969 L 24.046875 76.640625 C 26.300781 78.894531 29.261719 80.019531 32.226562 80.019531 C 35.1875 80.019531 38.148438 78.894531 40.402344 76.640625 C 44.910156 72.132812 44.910156 64.792969 40.402344 60.285156 L 8.660156 28.539062 C 3.035156 22.914062 3.035156 13.761719 8.660156 8.136719 C 14.285156 2.511719 23.441406 2.511719 29.0625 8.136719 L 35.800781 14.875 C 36.027344 15.101562 36.328125 15.207031 36.625 15.199219 C 36.921875 15.207031 37.21875 15.101562 37.445312 14.875 L 44.046875 8.269531 C 46.789062 5.53125 50.484375 3.917969 54.355469 3.910156 C 58.222656 3.902344 61.855469 5.402344 64.589844 8.136719 C 67.316406 10.867188 68.820312 14.496094 68.8125 18.359375 C 68.808594 22.234375 67.191406 25.933594 64.453125 28.675781 L 62.320312 30.808594 C 62.144531 30.984375 61.90625 31.082031 61.65625 31.082031 L 55.292969 31.082031 C 54.941406 31.082031 54.617188 30.882812 54.460938 30.570312 L 51.386719 24.421875 C 51.042969 23.734375 50.0625 23.734375 49.71875 24.421875 L 44.433594 34.976562 C 44.089844 35.664062 43.109375 35.664062 42.765625 34.976562 L 40.960938 31.367188 C 40.617188 30.679688 39.636719 30.679688 39.292969 31.367188 L 37.488281 34.976562 C 37.144531 35.664062 36.164062 35.664062 35.820312 34.976562 L 30.542969 24.417969 C 30.199219 23.730469 29.21875 23.730469 28.875 24.417969 L 25.800781 30.566406 C 25.640625 30.878906 25.320312 31.078125 24.964844 31.078125 L 19.335938 31.078125 C 18.71875 31.078125 18.1875 31.550781 18.167969 32.167969 C 18.148438 32.800781 18.65625 33.320312 19.289062 33.320312 L 26.351562 33.320312 C 26.703125 33.320312 27.027344 33.121094 27.183594 32.804688 L 28.875 29.425781 C 29.21875 28.738281 30.199219 28.738281 30.542969 29.425781 L 35.820312 39.984375 C 36.164062 40.671875 37.144531 40.671875 37.488281 39.984375 L 39.292969 36.375 C 39.636719 35.6875 40.617188 35.6875 40.960938 36.375 L 42.765625 39.984375 C 43.109375 40.675781 44.089844 40.675781 44.433594 39.984375 L 49.714844 29.429688 C 50.058594 28.742188 51.039062 28.742188 51.382812 29.429688 L 53.070312 32.808594 C 53.230469 33.121094 53.554688 33.324219 53.90625 33.324219 L 62.503906 33.324219 C 62.503906 33.324219 62.503906 33.324219 62.507812 33.324219 C 62.578125 33.324219 62.644531 33.316406 62.710938 33.304688 C 62.714844 33.304688 62.71875 33.300781 62.722656 33.300781 C 62.789062 33.289062 62.855469 33.269531 62.914062 33.246094 C 62.921875 33.242188 62.925781 33.242188 62.933594 33.238281 C 62.992188 33.214844 63.054688 33.183594 63.109375 33.148438 C 63.113281 33.144531 63.121094 33.140625 63.125 33.136719 C 63.1875 33.097656 63.242188 33.050781 63.292969 33 C 63.296875 33 63.296875 33 63.296875 32.996094 L 66.007812 30.285156 C 69.214844 27.078125 71.089844 22.734375 71.054688 18.195312 C 71.015625 13.660156 69.175781 9.410156 65.875 6.261719 Z M 5.1875 61.027344 C 5.1875 57.726562 7.871094 55.046875 11.167969 55.046875 C 14.46875 55.046875 17.152344 57.730469 17.152344 61.027344 C 17.152344 64.328125 14.46875 67.007812 11.167969 67.007812 C 7.871094 67.007812 5.1875 64.328125 5.1875 61.027344 Z M 5.1875 61.027344 " fill-opacity="1" fill-rule="nonzero"/></g><g fill="#ffffff" fill-opacity="1"><g transform="translate(40.168174, 66.34208)"><g><path d="M 15.625 0.53125 C 13.226562 0.53125 11.140625 0.125 9.359375 -0.6875 C 7.578125 -1.5 6.101562 -2.601562 4.9375 -4 C 3.78125 -5.40625 2.914062 -7.019531 2.34375 -8.84375 C 1.769531 -10.664062 1.484375 -12.582031 1.484375 -14.59375 C 1.484375 -16.613281 1.769531 -18.53125 2.34375 -20.34375 C 2.914062 -22.164062 3.78125 -23.773438 4.9375 -25.171875 C 6.101562 -26.578125 7.578125 -27.679688 9.359375 -28.484375 C 11.140625 -29.296875 13.226562 -29.703125 15.625 -29.703125 C 18.050781 -29.703125 20.15625 -29.296875 21.9375 -28.484375 C 23.71875 -27.679688 25.1875 -26.578125 26.34375 -25.171875 C 27.507812 -23.773438 28.378906 -22.164062 28.953125 -20.34375 C 29.523438 -18.53125 29.8125 -16.613281 29.8125 -14.59375 C 29.8125 -12.582031 29.523438 -10.664062 28.953125 -8.84375 C 28.378906 -7.019531 27.507812 -5.40625 26.34375 -4 C 25.1875 -2.601562 23.71875 -1.5 21.9375 -0.6875 C 20.15625 0.125 18.050781 0.53125 15.625 0.53125 Z M 15.625 -4.390625 C 17.4375 -4.390625 18.96875 -4.816406 20.21875 -5.671875 C 21.46875 -6.523438 22.421875 -7.722656 23.078125 -9.265625 C 23.742188 -10.804688 24.078125 -12.582031 24.078125 -14.59375 C 24.078125 -16.613281 23.742188 -18.378906 23.078125 -19.890625 C 22.421875 -21.410156 21.46875 -22.597656 20.21875 -23.453125 C 18.96875 -24.304688 17.4375 -24.734375 15.625 -24.734375 C 13.875 -24.734375 12.363281 -24.304688 11.09375 -23.453125 C 9.832031 -22.597656 8.867188 -21.410156 8.203125 -19.890625 C 7.546875 -18.378906 7.21875 -16.613281 7.21875 -14.59375 C 7.21875 -12.582031 7.546875 -10.804688 8.203125 -9.265625 C 8.867188 -7.722656 9.832031 -6.523438 11.09375 -5.671875 C 12.363281 -4.816406 13.875 -4.390625 15.625 -4.390625 Z M 15.625 -4.390625 "/></g></g></g><g fill="#ffffff" fill-opacity="1"><g transform="translate(71.502649, 66.34208)"><g><path d="M 7.484375 0 L 2.328125 0 L 2.328125 -21.4375 L 7.484375 -21.4375 L 7.484375 -18.875 C 8.304688 -20 9.21875 -20.785156 10.21875 -21.234375 C 11.226562 -21.679688 12.359375 -21.90625 13.609375 -21.90625 L 14.21875 -21.90625 L 14.21875 -16.9375 L 13.03125 -16.9375 C 12.164062 -16.9375 11.421875 -16.820312 10.796875 -16.59375 C 10.171875 -16.363281 9.640625 -16.039062 9.203125 -15.625 C 8.648438 -15.070312 8.222656 -14.34375 7.921875 -13.4375 C 7.628906 -12.53125 7.484375 -11.363281 7.484375 -9.9375 Z M 7.484375 0 "/></g></g></g><g fill="#ffffff" fill-opacity="1"><g transform="translate(86.443836, 66.34208)"><g><path d="M 10.96875 0.421875 C 9.101562 0.421875 7.457031 -0.046875 6.03125 -0.984375 C 4.601562 -1.929688 3.492188 -3.242188 2.703125 -4.921875 C 1.921875 -6.609375 1.53125 -8.546875 1.53125 -10.734375 C 1.53125 -12.929688 1.921875 -14.867188 2.703125 -16.546875 C 3.492188 -18.234375 4.601562 -19.546875 6.03125 -20.484375 C 7.457031 -21.429688 9.101562 -21.90625 10.96875 -21.90625 C 12.238281 -21.90625 13.351562 -21.679688 14.3125 -21.234375 C 15.269531 -20.785156 16.179688 -19.953125 17.046875 -18.734375 L 17.046875 -29.15625 L 22.203125 -29.15625 L 22.203125 0 L 17.046875 0 L 17.046875 -2.71875 C 16.179688 -1.519531 15.269531 -0.695312 14.3125 -0.25 C 13.351562 0.195312 12.238281 0.421875 10.96875 0.421875 Z M 12.15625 -4.015625 C 13.8125 -4.015625 15.144531 -4.640625 16.15625 -5.890625 C 17.175781 -7.140625 17.6875 -8.753906 17.6875 -10.734375 C 17.6875 -12.722656 17.175781 -14.34375 16.15625 -15.59375 C 15.144531 -16.84375 13.8125 -17.46875 12.15625 -17.46875 C 10.519531 -17.46875 9.203125 -16.835938 8.203125 -15.578125 C 7.210938 -14.316406 6.71875 -12.703125 6.71875 -10.734375 C 6.71875 -8.796875 7.210938 -7.191406 8.203125 -5.921875 C 9.203125 -4.648438 10.519531 -4.015625 12.15625 -4.015625 Z M 12.15625 -4.015625 "/></g></g></g><g fill="#ffffff" fill-opacity="1"><g transform="translate(111.01465, 66.34208)"><g><path d="M 4.9375 -23.8125 C 4.0625 -23.8125 3.3125 -24.078125 2.6875 -24.609375 C 2.070312 -25.148438 1.765625 -25.863281 1.765625 -26.75 C 1.765625 -27.613281 2.070312 -28.320312 2.6875 -28.875 C 3.3125 -29.425781 4.0625 -29.703125 4.9375 -29.703125 C 5.800781 -29.703125 6.546875 -29.425781 7.171875 -28.875 C 7.796875 -28.320312 8.109375 -27.613281 8.109375 -26.75 C 8.109375 -25.863281 7.796875 -25.148438 7.171875 -24.609375 C 6.546875 -24.078125 5.800781 -23.8125 4.9375 -23.8125 Z M 7.484375 0 L 2.328125 0 L 2.328125 -21.4375 L 7.484375 -21.4375 Z M 7.484375 0 "/></g></g></g><g fill="#ffffff" fill-opacity="1"><g transform="translate(120.873539, 66.34208)"><g><path d="M 7.484375 0 L 2.328125 0 L 2.328125 -21.4375 L 7.484375 -21.4375 L 7.484375 -18.734375 C 8.359375 -19.929688 9.265625 -20.757812 10.203125 -21.21875 C 11.148438 -21.675781 12.195312 -21.90625 13.34375 -21.90625 C 15.300781 -21.90625 16.78125 -21.550781 17.78125 -20.84375 C 18.789062 -20.144531 19.539062 -19.300781 20.03125 -18.3125 C 20.457031 -17.363281 20.707031 -16.398438 20.78125 -15.421875 C 20.863281 -14.441406 20.90625 -13.414062 20.90625 -12.34375 L 20.90625 0 L 15.78125 0 L 15.78125 -12.421875 C 15.78125 -13.515625 15.691406 -14.398438 15.515625 -15.078125 C 15.335938 -15.753906 15.070312 -16.296875 14.71875 -16.703125 C 14.101562 -17.335938 13.195312 -17.65625 12 -17.65625 C 10.550781 -17.65625 9.46875 -17.222656 8.75 -16.359375 C 8.320312 -15.847656 8.003906 -15.171875 7.796875 -14.328125 C 7.585938 -13.492188 7.484375 -12.363281 7.484375 -10.9375 Z M 7.484375 0 "/></g></g></g><g fill="#ffffff" fill-opacity="1"><g transform="translate(143.992265, 66.34208)"><g><path d="M 8.515625 0.421875 C 6.503906 0.421875 4.828125 -0.117188 3.484375 -1.203125 C 2.148438 -2.285156 1.484375 -3.847656 1.484375 -5.890625 C 1.484375 -7.035156 1.707031 -8.007812 2.15625 -8.8125 C 2.601562 -9.613281 3.195312 -10.269531 3.9375 -10.78125 C 4.625 -11.257812 5.40625 -11.640625 6.28125 -11.921875 C 7.164062 -12.203125 8.050781 -12.429688 8.9375 -12.609375 L 15.328125 -13.796875 C 15.273438 -15.117188 14.929688 -16.125 14.296875 -16.8125 C 13.660156 -17.5 12.703125 -17.84375 11.421875 -17.84375 C 10.453125 -17.84375 9.59375 -17.554688 8.84375 -16.984375 C 8.09375 -16.410156 7.617188 -15.613281 7.421875 -14.59375 L 2.296875 -14.59375 C 2.546875 -16.28125 3.128906 -17.65625 4.046875 -18.71875 C 4.960938 -19.789062 6.078125 -20.585938 7.390625 -21.109375 C 8.703125 -21.640625 10.0625 -21.90625 11.46875 -21.90625 C 12.71875 -21.90625 13.914062 -21.722656 15.0625 -21.359375 C 16.207031 -21.003906 17.175781 -20.457031 17.96875 -19.71875 C 18.800781 -18.976562 19.394531 -18.128906 19.75 -17.171875 C 20.113281 -16.222656 20.328125 -15.234375 20.390625 -14.203125 C 20.453125 -13.171875 20.484375 -12.15625 20.484375 -11.15625 L 20.484375 0 L 15.328125 0 L 15.328125 -2.90625 C 14.785156 -1.957031 14.132812 -1.242188 13.375 -0.765625 C 12.71875 -0.328125 11.972656 -0.0195312 11.140625 0.15625 C 10.316406 0.332031 9.441406 0.421875 8.515625 0.421875 Z M 9.78125 -3.625 C 10.800781 -3.625 11.71875 -3.832031 12.53125 -4.25 C 13.65625 -4.800781 14.414062 -5.546875 14.8125 -6.484375 C 15.207031 -7.429688 15.414062 -8.609375 15.4375 -10.015625 L 10.3125 -8.984375 C 9.570312 -8.859375 8.96875 -8.691406 8.5 -8.484375 C 8.03125 -8.273438 7.644531 -8.035156 7.34375 -7.765625 C 7.132812 -7.554688 6.96875 -7.3125 6.84375 -7.03125 C 6.71875 -6.75 6.65625 -6.429688 6.65625 -6.078125 C 6.65625 -5.285156 6.953125 -4.675781 7.546875 -4.25 C 8.148438 -3.832031 8.894531 -3.625 9.78125 -3.625 Z M 9.78125 -3.625 "/></g></g></g><g fill="#ffffff" fill-opacity="1"><g transform="translate(166.57601, 66.34208)"><g><path d="M 12.34375 0.421875 C 10.207031 0.421875 8.316406 -0.046875 6.671875 -0.984375 C 5.023438 -1.929688 3.742188 -3.25 2.828125 -4.9375 C 1.910156 -6.632812 1.453125 -8.609375 1.453125 -10.859375 C 1.453125 -13.023438 1.910156 -14.9375 2.828125 -16.59375 C 3.742188 -18.25 5.015625 -19.546875 6.640625 -20.484375 C 8.273438 -21.429688 10.175781 -21.90625 12.34375 -21.90625 C 14.914062 -21.90625 17.097656 -21.238281 18.890625 -19.90625 C 20.691406 -18.582031 21.859375 -16.8125 22.390625 -14.59375 L 16.78125 -14.59375 C 16.113281 -16.65625 14.632812 -17.6875 12.34375 -17.6875 C 10.6875 -17.6875 9.332031 -17.0625 8.28125 -15.8125 C 7.238281 -14.570312 6.71875 -12.921875 6.71875 -10.859375 C 6.71875 -8.710938 7.238281 -6.992188 8.28125 -5.703125 C 9.332031 -4.421875 10.6875 -3.78125 12.34375 -3.78125 C 13.59375 -3.78125 14.597656 -4.085938 15.359375 -4.703125 C 16.128906 -5.316406 16.640625 -6.15625 16.890625 -7.21875 L 22.46875 -7.21875 C 22.132812 -5.613281 21.492188 -4.238281 20.546875 -3.09375 C 19.609375 -1.945312 18.429688 -1.070312 17.015625 -0.46875 C 15.609375 0.125 14.050781 0.421875 12.34375 0.421875 Z M 12.34375 0.421875 "/></g></g></g><g fill="#ffffff" fill-opacity="1"><g transform="translate(190.306137, 66.34208)"><g><path d="M 4.9375 -23.8125 C 4.0625 -23.8125 3.3125 -24.078125 2.6875 -24.609375 C 2.070312 -25.148438 1.765625 -25.863281 1.765625 -26.75 C 1.765625 -27.613281 2.070312 -28.320312 2.6875 -28.875 C 3.3125 -29.425781 4.0625 -29.703125 4.9375 -29.703125 C 5.800781 -29.703125 6.546875 -29.425781 7.171875 -28.875 C 7.796875 -28.320312 8.109375 -27.613281 8.109375 -26.75 C 8.109375 -25.863281 7.796875 -25.148438 7.171875 -24.609375 C 6.546875 -24.078125 5.800781 -23.8125 4.9375 -23.8125 Z M 7.484375 0 L 2.328125 0 L 2.328125 -21.4375 L 7.484375 -21.4375 Z M 7.484375 0 "/></g></g></g><g fill="#ffffff" fill-opacity="1"><g transform="translate(200.165026, 66.34208)"><g><path d="M 4.9375 -23.8125 C 4.0625 -23.8125 3.3125 -24.078125 2.6875 -24.609375 C 2.070312 -25.148438 1.765625 -25.863281 1.765625 -26.75 C 1.765625 -27.613281 2.070312 -28.320312 2.6875 -28.875 C 3.3125 -29.425781 4.0625 -29.703125 4.9375 -29.703125 C 5.800781 -29.703125 6.546875 -29.425781 7.171875 -28.875 C 7.796875 -28.320312 8.109375 -27.613281 8.109375 -26.75 C 8.109375 -25.863281 7.796875 -25.148438 7.171875 -24.609375 C 6.546875 -24.078125 5.800781 -23.8125 4.9375 -23.8125 Z M 2.328125 7.71875 L -1.640625 7.71875 L -1.640625 3.359375 L 0.34375 3.359375 C 0.875 3.359375 1.34375 3.226562 1.75 2.96875 C 2.164062 2.71875 2.375 2.160156 2.375 1.296875 L 2.375 -21.4375 L 7.53125 -21.4375 L 7.53125 2.796875 C 7.53125 4.367188 7.082031 5.582031 6.1875 6.4375 C 5.300781 7.289062 4.015625 7.71875 2.328125 7.71875 Z M 2.328125 7.71875 "/></g></g></g><g fill="#ffffff" fill-opacity="1"><g transform="translate(210.023916, 66.34208)"><g><path d="M 8.515625 0.421875 C 6.503906 0.421875 4.828125 -0.117188 3.484375 -1.203125 C 2.148438 -2.285156 1.484375 -3.847656 1.484375 -5.890625 C 1.484375 -7.035156 1.707031 -8.007812 2.15625 -8.8125 C 2.601562 -9.613281 3.195312 -10.269531 3.9375 -10.78125 C 4.625 -11.257812 5.40625 -11.640625 6.28125 -11.921875 C 7.164062 -12.203125 8.050781 -12.429688 8.9375 -12.609375 L 15.328125 -13.796875 C 15.273438 -15.117188 14.929688 -16.125 14.296875 -16.8125 C 13.660156 -17.5 12.703125 -17.84375 11.421875 -17.84375 C 10.453125 -17.84375 9.59375 -17.554688 8.84375 -16.984375 C 8.09375 -16.410156 7.617188 -15.613281 7.421875 -14.59375 L 2.296875 -14.59375 C 2.546875 -16.28125 3.128906 -17.65625 4.046875 -18.71875 C 4.960938 -19.789062 6.078125 -20.585938 7.390625 -21.109375 C 8.703125 -21.640625 10.0625 -21.90625 11.46875 -21.90625 C 12.71875 -21.90625 13.914062 -21.722656 15.0625 -21.359375 C 16.207031 -21.003906 17.175781 -20.457031 17.96875 -19.71875 C 18.800781 -18.976562 19.394531 -18.128906 19.75 -17.171875 C 20.113281 -16.222656 20.328125 -15.234375 20.390625 -14.203125 C 20.453125 -13.171875 20.484375 -12.15625 20.484375 -11.15625 L 20.484375 0 L 15.328125 0 L 15.328125 -2.90625 C 14.785156 -1.957031 14.132812 -1.242188 13.375 -0.765625 C 12.71875 -0.328125 11.972656 -0.0195312 11.140625 0.15625 C 10.316406 0.332031 9.441406 0.421875 8.515625 0.421875 Z M 9.78125 -3.625 C 10.800781 -3.625 11.71875 -3.832031 12.53125 -4.25 C 13.65625 -4.800781 14.414062 -5.546875 14.8125 -6.484375 C 15.207031 -7.429688 15.414062 -8.609375 15.4375 -10.015625 L 10.3125 -8.984375 C 9.570312 -8.859375 8.96875 -8.691406 8.5 -8.484375 C 8.03125 -8.273438 7.644531 -8.035156 7.34375 -7.765625 C 7.132812 -7.554688 6.96875 -7.3125 6.84375 -7.03125 C 6.71875 -6.75 6.65625 -6.429688 6.65625 -6.078125 C 6.65625 -5.285156 6.953125 -4.675781 7.546875 -4.25 C 8.148438 -3.832031 8.894531 -3.625 9.78125 -3.625 Z M 9.78125 -3.625 "/></g></g></g></svg>