<?xml version="1.0" encoding="UTF-8"?>
<!DOCTYPE svg PUBLIC "-//W3C//DTD SVG 1.1//EN" "http://www.w3.org/Graphics/SVG/1.1/DTD/svg11.dtd">
<!-- Creator: CorelDRAW -->
<svg xmlns="http://www.w3.org/2000/svg" xml:space="preserve" width="6.82666in" height="6.82666in" style="shape-rendering:geometricPrecision; text-rendering:geometricPrecision; image-rendering:optimizeQuality; fill-rule:evenodd; clip-rule:evenodd"
viewBox="0 0 6.82666 6.82666"
 xmlns:xlink="http://www.w3.org/1999/xlink">
 <defs>
  <style type="text/css">
   <![CDATA[
    .fil4 {fill:none}
    .fil2 {fill:#6C6C6C}
    .fil1 {fill:#A2A2A2}
    .fil0 {fill:#C7C7C7}
    .fil3 {fill:#969696;fill-rule:nonzero}
   ]]>
  </style>
 </defs>
 <g id="Layer_x0020_1">
  <metadata id="CorelCorpID_0Corel-Layer"/>
  <path class="fil0" d="M1.62015 0.853331l2.78993 0 0.903102 0.901965 0 4.11137c0,0.0589094 -0.0477598,0.106669 -0.106669,0.106669l-3.58637 0c-0.0589094,0 -0.106669,-0.0477598 -0.106669,-0.106669l0 -4.90666c0,-0.0589094 0.0477598,-0.106669 0.106669,-0.106669z"/>
  <path class="fil1" d="M2.13333 4.47999c-0.0589094,0 -0.106669,0.0477598 -0.106669,0.106669 0,0.0589094 0.0477598,0.106669 0.106669,0.106669l2.56 0c0.0589094,0 0.106669,-0.0477598 0.106669,-0.106669 0,-0.0589094 -0.0477598,-0.106669 -0.106669,-0.106669l-2.56 0z"/>
  <path class="fil1" d="M2.13333 5.11999c-0.0589094,0 -0.106669,0.0477598 -0.106669,0.106669 0,0.0589094 0.0477598,0.106669 0.106669,0.106669l2.56 0c0.0589094,0 0.106669,-0.0477598 0.106669,-0.106669 0,-0.0589094 -0.0477598,-0.106669 -0.106669,-0.106669l-2.56 0z"/>
  <path class="fil1" d="M2.90525 3.19999c-0.0589094,0 -0.106669,0.0477598 -0.106669,0.106669 0,0.0589094 0.0477598,0.106669 0.106669,0.106669l1.01616 0c0.0589094,0 0.106669,-0.0477598 0.106669,-0.106669 0,-0.0589094 -0.0477598,-0.106669 -0.106669,-0.106669l-1.01616 0z"/>
  <path class="fil1" d="M2.13333 3.83999c-0.0589094,0 -0.106669,0.0477598 -0.106669,0.106669 0,0.0589094 0.0477598,0.106669 0.106669,0.106669l2.56 0c0.0589094,0 0.106669,-0.0477598 0.106669,-0.106669 0,-0.0589094 -0.0477598,-0.106669 -0.106669,-0.106669l-2.56 0z"/>
  <polygon class="fil2" points="2.89866,1.78118 3.28466,1.78118 3.28466,1.39518 3.542,1.39518 3.542,1.78118 3.928,1.78118 3.928,2.03852 3.542,2.03852 3.542,2.42452 3.28466,2.42452 3.28466,2.03852 2.89866,2.03852 "/>
  <polygon class="fil3" points="4.41008,0.853331 5.31317,1.75519 4.41008,1.75519 "/>
  <rect class="fil4" width="6.82666" height="6.82666"/>
 </g>
</svg>
