<?xml version="1.0" encoding="UTF-8"?>
<!DOCTYPE svg PUBLIC "-//W3C//DTD SVG 1.1//EN" "http://www.w3.org/Graphics/SVG/1.1/DTD/svg11.dtd">
<!-- Creator: CorelDRAW -->
<svg xmlns="http://www.w3.org/2000/svg" xml:space="preserve" width="6.82666in" height="6.82666in" style="shape-rendering:geometricPrecision; text-rendering:geometricPrecision; image-rendering:optimizeQuality; fill-rule:evenodd; clip-rule:evenodd"
viewBox="0 0 6.82666 6.82666"
 xmlns:xlink="http://www.w3.org/1999/xlink">
 <defs>
  <style type="text/css">
   <![CDATA[
    .fil9 {fill:none}
    .fil8 {fill:#555555}
    .fil6 {fill:#565656;fill-rule:nonzero}
    .fil7 {fill:#616161;fill-rule:nonzero}
    .fil2 {fill:#737373;fill-rule:nonzero}
    .fil0 {fill:#7B7B7B;fill-rule:nonzero}
    .fil3 {fill:#818181;fill-rule:nonzero}
    .fil1 {fill:#8A8A8A;fill-rule:nonzero}
    .fil4 {fill:#BCBCBC;fill-rule:nonzero}
    .fil5 {fill:#CCCCCC;fill-rule:nonzero}
   ]]>
  </style>
 </defs>
 <g id="Layer_x0020_1">
  <metadata id="CorelCorpID_0Corel-Layer"/>
  <path class="fil0" d="M3.62582 1.03128c0,-0.0589094 -0.0951417,-0.106669 -0.212492,-0.106669 -0.11735,0 -0.212492,0.0477598 -0.212492,0.106669l0 0.286134c0,0.0589094 0.0951417,0.106669 0.212492,0.106669 0.11735,0 0.212492,-0.0477598 0.212492,-0.106669l0 -0.286134z"/>
  <path class="fil1" d="M3.01114 0.824811c-0.0556535,0.00590157 -0.099685,0.0818031 -0.099685,0.174575 0,0.096626 0.0477598,0.174965 0.106669,0.174965l0.790409 0c0.0589094,0 0.106669,-0.0783386 0.106669,-0.174965 0,-0.0927717 -0.0440315,-0.168673 -0.099685,-0.174575 -0.00353543,0.0146142 -0.0166969,0.0254685 -0.0323976,0.0254685 -0.0158386,0 -0.0290945,-0.0110472 -0.0324921,-0.0258543l-0.0582795 0c-0.00339764,0.0148071 -0.0166535,0.0258543 -0.0324921,0.0258543 -0.0158386,0 -0.0290945,-0.0110472 -0.0324921,-0.0258543l-0.0582795 0c-0.00339764,0.0148071 -0.0166535,0.0258543 -0.0324921,0.0258543 -0.0158386,0 -0.0290945,-0.0110472 -0.0324921,-0.0258543l-0.0582795 0c-0.00339764,0.0148071 -0.0166535,0.0258543 -0.0324921,0.0258543 -0.0158386,0 -0.0290945,-0.0110472 -0.0324921,-0.0258543l-0.0582795 0c-0.00339764,0.0148071 -0.0166535,0.0258543 -0.0324921,0.0258543 -0.0158386,0 -0.0290945,-0.0110472 -0.0324921,-0.0258543l-0.0582795 0c-0.00339764,0.0148071 -0.0166535,0.0258543 -0.0324921,0.0258543 -0.0158386,0 -0.0290945,-0.0110472 -0.0324921,-0.0258543l-0.0582795 0c-0.00339764,0.0148071 -0.0166535,0.0258543 -0.0324921,0.0258543 -0.0157008,0 -0.0288622,-0.0108543 -0.0323976,-0.0254685z"/>
  <path class="fil2" d="M3.01114 0.824799l-0.000933071 0.000106299 0 0.226413c0,0.0184094 0.0149252,0.0333346 0.0333346,0.0333346 0.0184094,0 0.0333346,-0.0149252 0.0333346,-0.0333346l0 -0.226894 -0.00084252 0c-0.00339764,0.0148071 -0.0166535,0.0258543 -0.0324921,0.0258543 -0.0157047,0 -0.0288701,-0.0108583 -0.0324016,-0.0254803zm0.805319 0.000106299l-0.000933071 -0.000106299c-0.0035315,0.014622 -0.0166969,0.0254803 -0.0324016,0.0254803 -0.0158386,0 -0.0290945,-0.0110472 -0.0324921,-0.0258543l-0.00084252 0 0 0.226894c0,0.0184094 0.0149252,0.0333346 0.0333346,0.0333346 0.0184094,0 0.0333346,-0.0149252 0.0333346,-0.0333346l0 -0.226413zm-0.123264 -0.000480315l-0.00084252 0c-0.00339764,0.0148071 -0.0166535,0.0258543 -0.0324921,0.0258543 -0.0158386,0 -0.0290945,-0.0110472 -0.0324921,-0.0258543l-0.00084252 0 0 0.226894c0,0.0184094 0.0149252,0.0333346 0.0333346,0.0333346 0.0184094,0 0.0333346,-0.0149252 0.0333346,-0.0333346l0 -0.226894zm-0.123264 0l-0.00084252 0c-0.00339764,0.0148071 -0.0166535,0.0258543 -0.0324921,0.0258543 -0.0158386,0 -0.0290945,-0.0110472 -0.0324921,-0.0258543l-0.00084252 0 0 0.226894c0,0.0184094 0.0149252,0.0333346 0.0333346,0.0333346 0.0184094,0 0.0333346,-0.0149252 0.0333346,-0.0333346l0 -0.226894zm-0.123264 0l-0.00084252 0c-0.00339764,0.0148071 -0.0166535,0.0258543 -0.0324921,0.0258543 -0.0158386,0 -0.0290945,-0.0110472 -0.0324921,-0.0258543l-0.00084252 0 0 0.226894c0,0.0184094 0.0149252,0.0333346 0.0333346,0.0333346 0.0184094,0 0.0333346,-0.0149252 0.0333346,-0.0333346l0 -0.226894zm-0.123264 0l-0.00084252 0c-0.00339764,0.0148071 -0.0166535,0.0258543 -0.0324921,0.0258543 -0.0158386,0 -0.0290945,-0.0110472 -0.0324921,-0.0258543l-0.00084252 0 0 0.226894c0,0.0184094 0.0149252,0.0333346 0.0333346,0.0333346 0.0184094,0 0.0333346,-0.0149252 0.0333346,-0.0333346l0 -0.226894zm-0.123264 0l-0.00084252 0c-0.00339764,0.0148071 -0.0166535,0.0258543 -0.0324921,0.0258543 -0.0158386,0 -0.0290945,-0.0110472 -0.0324921,-0.0258543l-0.00084252 0 0 0.226894c0,0.0184094 0.0149252,0.0333346 0.0333346,0.0333346 0.0184094,0 0.0333346,-0.0149252 0.0333346,-0.0333346l0 -0.226894z"/>
  <path class="fil1" d="M3.41333 1.21075c0.661551,0 1.26049,0.268157 1.69404,0.701709 0.433551,0.433547 0.701709,1.03248 0.701709,1.69404 0,0.661551 -0.268157,1.26049 -0.701709,1.69404 -0.433547,0.433551 -1.03248,0.701709 -1.69404,0.701709 -0.661551,0 -1.26049,-0.268157 -1.69404,-0.701709 -0.433551,-0.433547 -0.701709,-1.03248 -0.701709,-1.69404 0,-0.661551 0.268157,-1.26049 0.701709,-1.69404 0.433547,-0.433551 1.03248,-0.701709 1.69404,-0.701709zm1.38217 1.01357c-0.353717,-0.353717 -0.842394,-0.5725 -1.38217,-0.5725 -0.539776,0 -1.02845,0.218783 -1.38217,0.5725 -0.353717,0.353717 -0.5725,0.842394 -0.5725,1.38217 0,0.539776 0.218783,1.02845 0.5725,1.38217 0.353717,0.353717 0.842394,0.5725 1.38217,0.5725 0.539776,0 1.02845,-0.218783 1.38217,-0.5725 0.353717,-0.353717 0.5725,-0.842394 0.5725,-1.38217 0,-0.539776 -0.218783,-1.02845 -0.5725,-1.38217z"/>
  <path class="fil3" d="M3.41333 1.47909c0.587453,0 1.11931,0.238122 1.50429,0.623114 0.384992,0.384984 0.623114,0.916839 0.623114,1.50429 0,0.587453 -0.238122,1.11931 -0.623114,1.50429 -0.384984,0.384992 -0.916839,0.623114 -1.50429,0.623114 -0.587453,0 -1.11931,-0.238122 -1.50429,-0.623114 -0.384992,-0.384984 -0.623114,-0.916839 -0.623114,-1.50429 0,-0.587453 0.238122,-1.11931 0.623114,-1.50429 0.384984,-0.384992 0.916839,-0.623114 1.50429,-0.623114zm1.38217 0.745236c-0.353717,-0.353717 -0.842394,-0.5725 -1.38217,-0.5725 -0.539776,0 -1.02845,0.218783 -1.38217,0.5725 -0.353717,0.353717 -0.5725,0.842394 -0.5725,1.38217 0,0.539776 0.218783,1.02845 0.5725,1.38217 0.353717,0.353717 0.842394,0.5725 1.38217,0.5725 0.539776,0 1.02845,-0.218783 1.38217,-0.5725 0.353717,-0.353717 0.5725,-0.842394 0.5725,-1.38217 0,-0.539776 -0.218783,-1.02845 -0.5725,-1.38217z"/>
  <path class="fil4" d="M3.41333 1.63705c1.08769,0 1.96944,0.881748 1.96944,1.96944 0,1.08769 -0.881748,1.96944 -1.96944,1.96944 -1.08769,0 -1.96944,-0.881748 -1.96944,-1.96944 0,-1.08769 0.881748,-1.96944 1.96944,-1.96944z"/>
  <path class="fil5" d="M3.45241 1.71521c1.06611,0 1.93036,0.864252 1.93036,1.93036 0,1.06611 -0.864252,1.93036 -1.93036,1.93036 -1.06611,0 -1.93036,-0.864252 -1.93036,-1.93036 0,-1.06611 0.864252,-1.93036 1.93036,-1.93036z"/>
  <path class="fil6" d="M1.72799 3.5445c-0.0342362,0 -0.0619961,0.0277598 -0.0619961,0.062 0,0.0342362 0.0277598,0.0619961 0.0619961,0.0619961l0.166307 0c0.0342362,0 0.0619961,-0.0277598 0.0619961,-0.0619961 0,-0.0342402 -0.0277598,-0.062 -0.0619961,-0.062l-0.166307 0z"/>
  <path class="fil6" d="M4.93237 3.5445c-0.0342362,0 -0.0619961,0.0277598 -0.0619961,0.062 0,0.0342362 0.0277598,0.0619961 0.0619961,0.0619961l0.166307 0c0.0342362,0 0.0619961,-0.0277598 0.0619961,-0.0619961 0,-0.0342402 -0.0277598,-0.062 -0.0619961,-0.062l-0.166307 0z"/>
  <path class="fil6" d="M2.27011 2.40294c-0.0166614,-0.0166614 -0.0436772,-0.0166614 -0.0603425,0 -0.0166614,0.0166654 -0.0166614,0.0436811 0,0.0603425l0.0809331 0.0809331c0.0166614,0.0166614 0.0436811,0.0166614 0.0603425,0 0.0166614,-0.0166614 0.0166614,-0.0436811 0,-0.0603425l-0.0809331 -0.0809331z"/>
  <path class="fil6" d="M4.53595 4.66878c-0.0166614,-0.0166614 -0.0436811,-0.0166614 -0.0603425,0 -0.0166614,0.0166614 -0.0166614,0.0436811 0,0.0603425l0.0809331 0.0809331c0.0166614,0.0166614 0.0436772,0.0166614 0.0603425,0 0.0166614,-0.0166654 0.0166614,-0.0436811 0,-0.0603425l-0.0809331 -0.0809331z"/>
  <path class="fil6" d="M2.82872 2.05288c-0.00886614,-0.0218346 -0.033752,-0.0323504 -0.0555866,-0.0234843 -0.0218307,0.0088622 -0.0323465,0.033748 -0.0234843,0.0555827l0.0430472 0.106047c0.00886614,0.0218346 0.033752,0.0323504 0.0555827,0.0234882 0.0218346,-0.0088622 0.0323504,-0.033752 0.0234882,-0.0555827l-0.0430472 -0.106051z"/>
  <path class="fil6" d="M4.03396 5.02196c-0.0088622,-0.0218307 -0.033748,-0.0323465 -0.0555827,-0.0234843 -0.0218307,0.0088622 -0.0323465,0.033748 -0.0234843,0.0555827l0.0430472 0.106051c0.00886614,0.0218307 0.033752,0.0323465 0.0555827,0.0234843 0.0218346,-0.0088622 0.0323504,-0.033748 0.0234882,-0.0555827l-0.0430512 -0.106051z"/>
  <path class="fil6" d="M4.05998 2.07766c0.00861811,-0.0219291 -0.00217323,-0.0466969 -0.0241063,-0.055315 -0.0219291,-0.00861811 -0.0466969,0.00217323 -0.0553189,0.0241063l-0.0418622 0.10652c-0.00861811,0.0219331 0.00217717,0.0467008 0.0241063,0.0553189 0.0219331,0.00861811 0.0467008,-0.00217323 0.0553189,-0.0241063l0.0418622 -0.106524z"/>
  <path class="fil6" d="M2.88796 5.06001c0.00862205,-0.0219331 -0.00217323,-0.0467008 -0.0241024,-0.0553189 -0.0219331,-0.00861811 -0.0467008,0.00217717 -0.0553189,0.0241063l-0.0418622 0.106524c-0.00861811,0.0219331 0.00217323,0.0467008 0.0241063,0.0553189 0.0219291,0.00861811 0.0466969,-0.00217717 0.055315,-0.0241063l0.0418622 -0.106524z"/>
  <path class="fil6" d="M3.35133 5.29183c0,0.0342362 0.0277598,0.0619961 0.062,0.0619961 0.0342362,0 0.0619961,-0.0277598 0.0619961,-0.0619961l0 -0.166307c0,-0.0342362 -0.0277598,-0.0619961 -0.0619961,-0.0619961 -0.0342402,0 -0.062,0.0277598 -0.062,0.0619961l0 0.166307z"/>
  <path class="fil6" d="M3.35133 2.08746c0,0.0342362 0.0277598,0.0619961 0.062,0.0619961 0.0342362,0 0.0619961,-0.0277598 0.0619961,-0.0619961l0 -0.166307c0,-0.0342362 -0.0277598,-0.0619961 -0.0619961,-0.0619961 -0.0342402,0 -0.062,0.0277598 -0.062,0.0619961l0 0.166307z"/>
  <path class="fil6" d="M2.20978 4.74971c-0.0166614,0.0166614 -0.0166614,0.0436772 0,0.0603425 0.0166654,0.0166614 0.0436811,0.0166614 0.0603425,0l0.0809331 -0.0809331c0.0166614,-0.0166614 0.0166614,-0.0436811 0,-0.0603425 -0.0166614,-0.0166614 -0.0436811,-0.0166614 -0.0603425,0l-0.0809331 0.0809331z"/>
  <path class="fil6" d="M4.47561 2.48387c-0.0166614,0.0166614 -0.0166614,0.0436811 0,0.0603425 0.0166614,0.0166614 0.0436811,0.0166614 0.0603425,0l0.0809331 -0.0809331c0.0166614,-0.0166614 0.0166614,-0.0436772 0,-0.0603425 -0.0166654,-0.0166614 -0.0436811,-0.0166614 -0.0603425,0l-0.0809331 0.0809331z"/>
  <path class="fil6" d="M1.85972 4.19111c-0.0218346,0.00886614 -0.0323504,0.033752 -0.0234843,0.0555866 0.0088622,0.0218307 0.033748,0.0323465 0.0555827,0.0234843l0.106047 -0.0430472c0.0218346,-0.00886614 0.0323504,-0.033752 0.0234882,-0.0555827 -0.0088622,-0.0218346 -0.033752,-0.0323504 -0.0555827,-0.0234882l-0.106051 0.0430472z"/>
  <path class="fil6" d="M4.8288 2.98586c-0.0218307,0.0088622 -0.0323465,0.033748 -0.0234843,0.0555827 0.0088622,0.0218307 0.033748,0.0323465 0.0555827,0.0234843l0.106051 -0.0430472c0.0218307,-0.00886614 0.0323465,-0.033752 0.0234843,-0.0555827 -0.0088622,-0.0218346 -0.033748,-0.0323504 -0.0555827,-0.0234882l-0.106051 0.0430512z"/>
  <path class="fil6" d="M1.8845 2.95985c-0.0219291,-0.00861811 -0.0466969,0.00217323 -0.055315,0.0241063 -0.00861811,0.0219291 0.00217323,0.0466969 0.0241063,0.0553189l0.10652 0.0418622c0.0219331,0.00861811 0.0467008,-0.00217717 0.0553189,-0.0241063 0.00861811,-0.0219331 -0.00217323,-0.0467008 -0.0241063,-0.0553189l-0.106524 -0.0418622z"/>
  <path class="fil6" d="M4.86685 4.13186c-0.0219331,-0.00862205 -0.0467008,0.00217323 -0.0553189,0.0241024 -0.00861811,0.0219331 0.00217717,0.0467008 0.0241063,0.0553189l0.106524 0.0418622c0.0219331,0.00861811 0.0467008,-0.00217323 0.0553189,-0.0241063 0.00861811,-0.0219291 -0.00217717,-0.0466969 -0.0241063,-0.055315l-0.106524 -0.0418622z"/>
  <path class="fil7" d="M3.22241 3.70884c-0.0195591,0.0218583 -0.0176929,0.0554409 0.00416535,0.075 0.0218583,0.0195591 0.0554409,0.0176929 0.075,-0.00416535l0.0444528 -0.0497087c0.0196693,0.00766535 0.041063,0.011878 0.0634449,0.011878 0.0965433,0 0.174803,-0.0782598 0.174803,-0.174803 0,-0.0293071 -0.00722441,-0.0569173 -0.0199685,-0.0811772l0.65602 -0.733618c0.0195591,-0.0218583 0.0176929,-0.0554409 -0.00416535,-0.075 -0.0218583,-0.0195591 -0.0554409,-0.0176929 -0.075,0.00416535l-0.652543 0.729732c-0.0237598,-0.0120906 -0.0506575,-0.0189055 -0.0791457,-0.0189055 -0.0965433,0 -0.174803,0.0782598 -0.174803,0.174803 0,0.0354528 0.010563,0.068437 0.0287047,0.0959882l-0.0409646 0.045811z"/>
  <circle class="fil8" cx="3.41009" cy="3.56608" r="0.10463"/>
  <rect class="fil9" width="6.82666" height="6.82666"/>
 </g>
</svg>
